<svg width="16" height="16" viewBox="0 0 24 24" aria-labelledby="searchIconTitle" stroke="#000" stroke-width="4.5" stroke-linecap="square" fill="#fff" color="#000" xmlns="http://www.w3.org/2000/svg"><path d="M14.412 14.412 20 20" style="fill:red"/><circle cx="10" cy="10" r="6"/><path style="fill:#000;fill-opacity:1;stroke-width:.0766773" d="M6.302 9.133a2.519 2.519 0 0 1-2.08-1.982 3.028 3.028 0 0 1-.008-.923 2.511 2.511 0 0 1 1.97-2.004A2.5 2.5 0 0 1 9.01 5.827c.113.323.13.435.13.835 0 .286-.006.395-.028.495a2.555 2.555 0 0 1-.688 1.267 2.553 2.553 0 0 1-1.259.685c-.14.032-.712.048-.863.024Z" transform="scale(1.5)"/><path style="fill:#000;fill-opacity:1;stroke-width:.0766773" d="M11.345 13.45 9.357 11.46l-.27.13a5.49 5.49 0 0 1-6.67-1.453 5.48 5.48 0 0 1-.242-6.622 5.545 5.545 0 0 1 2.076-1.777 5.477 5.477 0 0 1 5.51.396 5.493 5.493 0 0 1 2.266 5.71 5.377 5.377 0 0 1-.436 1.242l-.13.27 1.988 1.988 1.989 1.988-1.053 1.053-1.052 1.052z" transform="scale(1.5)"/><path style="fill:red;stroke-width:.0766773" d="m11.346 13.484-1.988-1.988-.3.139c-.779.36-1.437.52-2.242.543a5.453 5.453 0 0 1-2.516-.531 5.534 5.534 0 0 1-3.072-4.064 4.736 4.736 0 0 1-.073-.938 5.393 5.393 0 0 1 .637-2.556c.122-.23.408-.667.565-.86a5.556 5.556 0 0 1 3.76-2.055 7.377 7.377 0 0 1 1.09 0c.37.042.743.118 1.074.217.391.118.939.37 1.312.604a5.518 5.518 0 0 1 2.292 6.455 8.76 8.76 0 0 1-.351.824l-.04.082 1.989 1.989 1.989 1.988-1.07 1.07-1.069 1.069z" transform="scale(1.5)"/><path style="fill:#333;stroke-width:.0766773" d="M11.357 13.427A141.936 141.936 0 0 0 9.36 11.45c-.01 0-.11.043-.218.094-.643.302-1.168.463-1.781.548a7.593 7.593 0 0 1-1.38 0 5.362 5.362 0 0 1-1.721-.525 5.35 5.35 0 0 1-1.98-1.645 5.515 5.515 0 0 1-1.022-2.434c-.036-.216-.04-.288-.04-.8 0-.505.004-.59.04-.826.096-.624.311-1.27.599-1.79.12-.216.411-.656.555-.835.151-.19.66-.694.84-.835.945-.736 1.976-1.133 3.1-1.192a5.372 5.372 0 0 1 2.287.361c1.083.437 1.95 1.133 2.573 2.066.572.857.884 1.836.914 2.872.028.94-.145 1.708-.604 2.675l-.085.18 1.984 1.984 1.983 1.985-1.036 1.036-1.035 1.035z" transform="scale(1.5)"/><path style="fill:#fff;stroke-width:.0766773" d="M11.425 13.43a197.933 197.933 0 0 0-1.988-1.968l-.08-.065-.295.13c-.99.441-1.639.577-2.604.547a4.955 4.955 0 0 1-2.126-.53 5.212 5.212 0 0 1-2.03-1.677A5.368 5.368 0 0 1 1.39 7.89c-.117-.492-.12-.526-.12-1.21 0-.603.002-.63.048-.89a5.348 5.348 0 0 1 .824-2.083c.27-.407.361-.518.707-.862.32-.318.467-.442.763-.644 1.015-.692 2.176-1.017 3.361-.941.705.045 1.259.179 1.872.453a5.446 5.446 0 0 1 2.937 3.178c.185.532.276 1.04.293 1.645.027.92-.132 1.625-.585 2.605l-.11.238 1.978 1.978 1.977 1.977-1 1-1.002 1.001z" transform="scale(1.5)"/><path style="fill:#fff;stroke-width:.0766773" d="M12.175 14.107c-1.505-1.506-2.779-2.759-2.806-2.759-.011 0-.163.063-.337.139-.676.295-1.133.434-1.688.511-.219.03-1.073.03-1.312 0-.677-.085-1.157-.235-1.806-.566A5.112 5.112 0 0 1 2.353 9.85a5.33 5.33 0 0 1-.915-1.968c-.098-.398-.11-.506-.12-1.032-.012-.573.007-.864.078-1.21.145-.71.395-1.307.803-1.925.244-.37.378-.53.734-.88a4.34 4.34 0 0 1 .722-.602c1.165-.78 2.439-1.073 3.808-.877.88.126 1.802.532 2.542 1.117.21.166.695.647.856.85.203.255.449.642.603.952.28.558.439 1.08.525 1.714.038.278.044 1.09.01 1.338-.078.577-.235 1.089-.542 1.768a5.168 5.168 0 0 0-.126.29c0 .007.886.898 1.968 1.98l1.968 1.968-.967.967-.967.967z" transform="scale(1.5)"/></svg>