<svg fill="#000000" width="64px" height="64px" viewBox="0 0 32 32" xmlns="http://www.w3.org/2000/svg"><g id="SVGRepo_bgCarrier" stroke-width="0"></g><g id="SVGRepo_tracerCarrier" stroke-linecap="round" stroke-linejoin="round"></g><g id="SVGRepo_iconCarrier"> <title></title> <g data-name="01" id="_01"> <path d="M8,28H24a1,1,0,0,0,1-1V6a1,1,0,0,0-1-1H8A1,1,0,0,0,7,6V27A1,1,0,0,0,8,28ZM9,7H23V26H9Zm12,3a1,1,0,0,1-1,1H12a1,1,0,0,1,0-2h8A1,1,0,0,1,21,10Zm0,5a1,1,0,0,1-1,1H12a1,1,0,0,1,0-2h8A1,1,0,0,1,21,15Zm-4,5a1,1,0,0,1-1,1H12a1,1,0,0,1,0-2h4A1,1,0,0,1,17,20Z"></path> </g> </g></svg>